<?xml version="1.0" standalone="no"?>
<!DOCTYPE svg PUBLIC "-//W3C//DTD SVG 20010904//EN"
 "http://www.w3.org/TR/2001/REC-SVG-20010904/DTD/svg10.dtd">
<svg version="1.0" xmlns="http://www.w3.org/2000/svg"
 width="500.000000pt" height="500.000000pt" viewBox="0 0 500.000000 500.000000"
 preserveAspectRatio="xMidYMid meet">

<g transform="translate(0.000000,500.000000) scale(0.100000,-0.100000)"
fill="#000000" stroke="none">
<path d="M0 2500 l0 -2500 2500 0 2500 0 0 2500 0 2500 -2500 0 -2500 0 0
-2500z m2217 233 c-16 -17 -27 -8 -220 185 l-202 202 -197 -197 -196 -198 5
-337 6 -338 418 0 419 0 0 -25 0 -25 -443 0 -444 0 -6 373 -6 372 222 223 222
222 220 -220 c209 -209 219 -221 202 -237z m12 -98 c16 -8 31 -22 35 -30 3 -9
6 -76 6 -149 0 -120 -2 -136 -21 -160 -17 -21 -29 -26 -65 -26 -82 0 -99 40
-92 219 3 113 11 135 53 151 30 13 53 12 84 -5z m264 -16 c14 -18 17 -43 17
-165 0 -131 -2 -146 -20 -164 -28 -28 -96 -27 -127 2 -22 20 -23 28 -23 160 0
80 5 148 11 159 23 43 109 48 142 8z m561 1 c18 -18 21 -35 24 -131 6 -181
-10 -219 -92 -219 -36 0 -48 5 -65 26 -19 24 -21 40 -21 155 0 135 8 170 44
188 30 15 86 5 110 -19z m-1168 5 c10 -8 40 -15 67 -15 l47 0 0 -235 0 -235
-172 2 -173 3 -3 233 -2 232 45 0 c33 0 45 4 45 15 0 21 118 21 146 0z m799
-106 c10 -66 22 -114 25 -107 4 7 13 56 20 108 7 52 15 100 17 107 3 8 22 13
44 13 l39 0 0 -185 0 -185 -30 0 -30 0 -1 108 -1 107 -17 -105 c-16 -102 -17
-105 -43 -108 -31 -4 -29 -8 -53 132 -8 49 -17 91 -20 94 -3 3 -5 -47 -5 -111
l0 -117 -25 0 -25 0 0 185 0 185 43 0 44 0 18 -121z m625 95 c0 -14 -23 -80
-51 -147 -28 -67 -53 -128 -56 -134 -4 -10 10 -13 51 -13 53 0 56 -1 56 -25 0
-25 -1 -25 -85 -25 l-85 0 0 28 c0 15 25 86 54 157 l55 130 -50 3 c-45 3 -49
5 -49 28 0 23 2 24 80 24 79 0 80 0 80 -26z m224 -146 c15 -95 29 -179 31
-186 4 -10 -4 -12 -28 -10 -28 3 -32 7 -35 36 -3 32 -5 33 -40 30 -34 -3 -37
-6 -40 -35 -3 -29 -7 -33 -33 -33 -28 0 -30 2 -25 28 3 15 15 86 26 157 32
202 25 185 74 185 l43 0 27 -172z"/>
<path d="M2156 2574 c-9 -24 -7 -227 3 -242 5 -8 17 -12 27 -10 17 3 19 15 22
136 l3 132 -25 0 c-13 0 -27 -7 -30 -16z"/>
<path d="M2400 2460 c0 -107 3 -132 15 -136 35 -14 45 14 45 126 0 126 -4 140
-36 140 l-24 0 0 -130z"/>
<path d="M2965 2578 c-3 -8 -4 -68 -3 -134 3 -114 4 -119 25 -122 30 -4 34 18
31 153 -3 106 -4 110 -26 113 -12 2 -24 -3 -27 -10z"/>
<path d="M3459 2545 c-4 -5 -10 -37 -14 -69 -4 -33 -9 -65 -12 -73 -4 -9 4
-13 26 -13 28 0 30 2 26 28 -3 15 -9 52 -13 82 -4 30 -10 51 -13 45z"/>
</g>
</svg>
